<?xml version="1.0" encoding="UTF-8"?>
<svg id="Ebene_2" data-name="Ebene 2" xmlns="http://www.w3.org/2000/svg" viewBox="0 0 821.25 195.22">
  <defs>
    <style>
      .cls-1 {
        fill: #111827;
      }

      .cls-2 {
        fill: #2563eb;
      }
    </style>
  </defs>
  <g id="Ebene_1-2" data-name="Ebene 1">
    <g>
      <path class="cls-1" d="m44.95,115.45v14.25H0v-14.25h44.95Zm-33.85-18.73h18.43v73.41c0,2.48.38,4.37,1.15,5.68.76,1.31,1.77,2.2,3.03,2.67,1.26.48,2.65.71,4.17.71,1.15,0,2.21-.08,3.18-.25.97-.17,1.71-.32,2.21-.46l3.11,14.41c-.98.34-2.38.71-4.2,1.12-1.82.41-4.03.64-6.64.71-4.62.13-8.77-.57-12.47-2.11-3.7-1.54-6.63-3.95-8.78-7.2-2.16-3.26-3.22-7.33-3.18-12.22v-76.46Z"/>
      <path class="cls-1" d="m79.29,195.22c-4.96,0-9.41-.89-13.36-2.67-3.95-1.78-7.08-4.42-9.37-7.92-2.29-3.5-3.44-7.81-3.44-12.93,0-4.41.81-8.06,2.44-10.95,1.63-2.88,3.85-5.19,6.67-6.92,2.82-1.73,6-3.05,9.55-3.95,3.55-.9,7.22-1.55,11.02-1.96,4.58-.47,8.3-.91,11.15-1.3,2.85-.39,4.93-1,6.24-1.83,1.31-.83,1.96-2.13,1.96-3.89v-.3c0-3.83-1.14-6.8-3.41-8.91-2.27-2.1-5.55-3.16-9.83-3.16-4.51,0-8.09.98-10.72,2.95-2.63,1.97-4.4,4.29-5.32,6.97l-17.21-2.44c1.36-4.75,3.6-8.73,6.72-11.94,3.12-3.21,6.94-5.62,11.45-7.23,4.51-1.61,9.5-2.42,14.97-2.42,3.77,0,7.52.44,11.25,1.32,3.73.88,7.14,2.33,10.23,4.35,3.09,2.02,5.57,4.76,7.46,8.22,1.88,3.46,2.83,7.79,2.83,12.98v52.33h-17.72v-10.74h-.61c-1.12,2.17-2.69,4.2-4.71,6.08-2.02,1.88-4.55,3.39-7.59,4.53-3.04,1.14-6.59,1.71-10.67,1.71Zm4.79-13.54c3.7,0,6.91-.74,9.62-2.21,2.71-1.48,4.81-3.44,6.29-5.88s2.21-5.11,2.21-7.99v-9.21c-.58.48-1.55.92-2.93,1.32s-2.91.76-4.61,1.07c-1.7.31-3.38.58-5.04.81-1.66.24-3.11.44-4.33.61-2.75.37-5.21.98-7.38,1.83-2.17.85-3.89,2.03-5.14,3.54-1.26,1.51-1.88,3.45-1.88,5.83,0,3.39,1.24,5.96,3.72,7.69,2.48,1.73,5.63,2.6,9.47,2.6Z"/>
      <path class="cls-1" d="m154,89.38v104.26h-18.43v-104.26h18.43Z"/>
      <path class="cls-1" d="m203.98,195.17c-7.84,0-14.6-1.64-20.29-4.91-5.69-3.27-10.05-7.92-13.11-13.95-3.05-6.02-4.58-13.13-4.58-21.31s1.54-15.11,4.61-21.2c3.07-6.09,7.37-10.84,12.91-14.25,5.53-3.41,12.03-5.12,19.5-5.12,4.82,0,9.38.77,13.67,2.32,4.29,1.54,8.09,3.93,11.4,7.15,3.31,3.22,5.91,7.32,7.81,12.29,1.9,4.97,2.85,10.89,2.85,17.74v5.65h-64.09v-12.42h46.43c-.03-3.53-.8-6.68-2.29-9.44-1.49-2.77-3.57-4.95-6.24-6.54-2.66-1.59-5.76-2.39-9.29-2.39-3.77,0-7.08.91-9.93,2.72-2.85,1.82-5.07,4.19-6.64,7.13s-2.38,6.15-2.42,9.65v10.84c0,4.55.83,8.44,2.49,11.68,1.66,3.24,3.99,5.72,6.97,7.43,2.99,1.71,6.48,2.57,10.49,2.57,2.68,0,5.11-.38,7.28-1.15,2.17-.76,4.06-1.89,5.65-3.38,1.59-1.49,2.8-3.34,3.61-5.55l17.21,1.93c-1.09,4.55-3.15,8.51-6.19,11.89-3.04,3.38-6.92,5.99-11.63,7.84-4.72,1.85-10.11,2.77-16.19,2.77Z"/>
      <path class="cls-1" d="m269.17,147.82v45.82h-18.43v-78.2h17.61v13.29h.92c1.8-4.38,4.67-7.86,8.63-10.44,3.95-2.58,8.85-3.87,14.69-3.87,5.4,0,10.11,1.15,14.13,3.46,4.02,2.31,7.14,5.65,9.37,10.03,2.22,4.38,3.32,9.69,3.28,15.93v49.79h-18.43v-46.94c0-5.23-1.35-9.32-4.05-12.27-2.7-2.95-6.42-4.43-11.17-4.43-3.22,0-6.08.71-8.58,2.11s-4.45,3.44-5.85,6.08c-1.41,2.65-2.11,5.85-2.11,9.62Z"/>
      <path class="cls-1" d="m373.61,115.45v14.25h-44.95v-14.25h44.95Zm-33.85-18.73h18.43v73.41c0,2.48.38,4.37,1.15,5.68.76,1.31,1.77,2.2,3.03,2.67,1.26.48,2.65.71,4.17.71,1.15,0,2.21-.08,3.18-.25.97-.17,1.71-.32,2.21-.46l3.11,14.41c-.98.34-2.38.71-4.2,1.12-1.82.41-4.03.64-6.64.71-4.62.13-8.77-.57-12.47-2.11-3.7-1.54-6.63-3.95-8.78-7.2-2.16-3.26-3.22-7.33-3.18-12.22v-76.46Z"/>
      <path class="cls-1" d="m446.08,136.12l-16.8,1.83c-.48-1.7-1.3-3.29-2.47-4.79s-2.74-2.7-4.71-3.62c-1.97-.92-4.38-1.37-7.23-1.37-3.84,0-7.05.83-9.65,2.49-2.6,1.66-3.88,3.82-3.84,6.47-.03,2.27.81,4.12,2.52,5.55,1.71,1.43,4.56,2.6,8.53,3.51l13.34,2.85c7.4,1.6,12.91,4.12,16.52,7.58,3.61,3.46,5.44,7.99,5.47,13.59-.03,4.92-1.47,9.26-4.3,13.01-2.83,3.75-6.76,6.68-11.79,8.78-5.02,2.1-10.79,3.16-17.31,3.16-9.57,0-17.28-2.01-23.11-6.03-5.84-4.02-9.32-9.63-10.44-16.82l17.97-1.73c.81,3.53,2.55,6.19,5.19,7.99s6.09,2.7,10.33,2.7,7.9-.9,10.56-2.7c2.66-1.8,4-4.02,4-6.67,0-2.24-.86-4.09-2.57-5.55-1.71-1.46-4.37-2.58-7.97-3.36l-13.34-2.8c-7.5-1.56-13.05-4.2-16.65-7.92-3.6-3.72-5.38-8.42-5.35-14.13-.03-4.82,1.28-9,3.95-12.55,2.66-3.55,6.38-6.29,11.15-8.25,4.77-1.95,10.27-2.93,16.52-2.93,9.16,0,16.38,1.95,21.66,5.85,5.28,3.9,8.54,9.18,9.8,15.83Z"/>
      <path class="cls-1" d="m498.45,115.45v14.25h-44.95v-14.25h44.95Zm-33.85-18.73h18.43v73.41c0,2.48.38,4.37,1.15,5.68.76,1.31,1.77,2.2,3.03,2.67,1.26.48,2.65.71,4.17.71,1.15,0,2.21-.08,3.18-.25.97-.17,1.71-.32,2.21-.46l3.11,14.41c-.98.34-2.38.71-4.2,1.12-1.82.41-4.03.64-6.64.71-4.62.13-8.77-.57-12.47-2.11-3.7-1.54-6.63-3.95-8.78-7.2-2.16-3.26-3.22-7.33-3.18-12.22v-76.46Z"/>
      <path class="cls-1" d="m532.79,195.22c-4.96,0-9.41-.89-13.36-2.67-3.95-1.78-7.08-4.42-9.37-7.92-2.29-3.5-3.44-7.81-3.44-12.93,0-4.41.81-8.06,2.44-10.95,1.63-2.88,3.85-5.19,6.67-6.92,2.82-1.73,6-3.05,9.55-3.95,3.55-.9,7.22-1.55,11.02-1.96,4.58-.47,8.3-.91,11.15-1.3,2.85-.39,4.93-1,6.24-1.83,1.31-.83,1.96-2.13,1.96-3.89v-.3c0-3.83-1.14-6.8-3.41-8.91-2.27-2.1-5.55-3.16-9.83-3.16-4.51,0-8.09.98-10.72,2.95-2.63,1.97-4.4,4.29-5.32,6.97l-17.21-2.44c1.36-4.75,3.6-8.73,6.72-11.94,3.12-3.21,6.94-5.62,11.45-7.23,4.51-1.61,9.5-2.42,14.97-2.42,3.77,0,7.52.44,11.25,1.32,3.73.88,7.14,2.33,10.23,4.35,3.09,2.02,5.57,4.76,7.46,8.22,1.88,3.46,2.83,7.79,2.83,12.98v52.33h-17.72v-10.74h-.61c-1.12,2.17-2.69,4.2-4.71,6.08-2.02,1.88-4.55,3.39-7.59,4.53-3.04,1.14-6.59,1.71-10.67,1.71Zm4.79-13.54c3.7,0,6.91-.74,9.62-2.21,2.71-1.48,4.81-3.44,6.29-5.88s2.21-5.11,2.21-7.99v-9.21c-.58.48-1.55.92-2.93,1.32-1.38.41-2.91.76-4.61,1.07s-3.38.58-5.04.81c-1.66.24-3.11.44-4.33.61-2.75.37-5.21.98-7.38,1.83-2.17.85-3.89,2.03-5.14,3.54-1.26,1.51-1.88,3.45-1.88,5.83,0,3.39,1.24,5.96,3.72,7.69,2.48,1.73,5.63,2.6,9.47,2.6Z"/>
      <path class="cls-1" d="m589.07,193.64v-78.2h17.87v13.03h.81c1.43-4.51,3.88-8,7.36-10.46,3.48-2.46,7.46-3.69,11.94-3.69,1.02,0,2.16.04,3.44.13s2.33.21,3.18.38v16.95c-.78-.27-2.01-.52-3.69-.74-1.68-.22-3.3-.33-4.86-.33-3.36,0-6.37.72-9.04,2.16-2.67,1.44-4.76,3.44-6.29,5.98-1.53,2.55-2.29,5.48-2.29,8.81v45.97h-18.43Z"/>
      <path class="cls-1" d="m642.35,193.64v-104.26h18.43v104.26h-18.43Zm16.8-24.54l-.05-22.25h2.95l28.1-31.41h21.53l-34.57,38.49h-3.82l-14.15,15.17Zm32.28,24.54l-25.45-35.58,12.42-12.98,35.08,48.57h-22.04Z"/>
    </g>
    <g id="Ebene_1-2" data-name="Ebene 1-2">
      <g>
        <path class="cls-2" d="m735.16,71.58c-1.09-1.09-1.98-3.24-1.98-4.78v-22.11c0-1.54.89-3.7,1.98-4.78l1.56-1.56c1.09-1.09,1.09-2.87,0-3.96l-16.59-16.62c-1.09-1.09-2.87-1.09-3.96,0l-6.32,6.32c-1.09,1.09-1.09,2.87,0,3.96l11.85,11.85c1.09,1.09,1.98,3.24,1.98,4.78v22.11c0,1.54-.89,3.7-1.98,4.78l-11.85,11.86c-1.09,1.09-1.09,2.88,0,3.96l6.32,6.32c1.09,1.09,2.87,1.09,3.96,0l16.6-16.6c1.09-1.09,1.09-2.87,0-3.96l-1.56-1.57h-.01Z"/>
        <path class="cls-2" d="m780.78,85.52c-1.09,1.09-3.24,1.98-4.78,1.98h-22.11c-1.54,0-3.7-.89-4.79-1.98l-1.56-1.57c-1.09-1.09-2.88-1.09-3.97,0l-16.6,16.6c-1.09,1.09-1.09,2.88,0,3.97l6.32,6.32c1.09,1.09,2.87,1.09,3.96,0l11.84-11.85c1.09-1.09,3.24-1.98,4.79-1.98h22.11c1.54,0,3.69.89,4.78,1.98l11.85,11.85c1.09,1.09,2.87,1.09,3.96,0l6.32-6.32c1.09-1.09,1.09-2.88,0-3.97l-16.6-16.6c-1.09-1.09-2.87-1.09-3.96,0l-1.57,1.57h.01Z"/>
        <path class="cls-2" d="m795.12,40.07c1.09,1.09,1.98,3.25,1.98,4.79v22.1c0,1.54-.89,3.7-1.98,4.79l-1.57,1.57c-1.09,1.09-1.09,2.87,0,3.96l16.6,16.6c1.09,1.09,2.87,1.09,3.96,0l6.32-6.32c1.09-1.09,1.09-2.87,0-3.96l-11.84-11.84c-1.09-1.09-1.99-3.25-1.99-4.79v-22.1c0-1.54.89-3.7,1.99-4.79l11.84-11.85c1.09-1.09,1.09-2.88,0-3.96l-6.32-6.32c-1.09-1.09-2.87-1.09-3.96,0l-16.6,16.6c-1.09,1.09-1.09,2.87,0,3.96l1.57,1.57h0Z"/>
        <path class="cls-2" d="m749.5,26.13c1.09-1.09,3.24-1.98,4.78-1.98h22.11c1.54,0,3.69.89,4.78,1.98l1.57,1.57c1.09,1.09,2.87,1.09,3.96,0l16.6-16.6c1.09-1.09,1.09-2.88,0-3.97l-6.32-6.31c-1.09-1.09-2.88-1.09-3.96,0l-11.85,11.84c-1.09,1.09-3.24,1.98-4.78,1.98h-22.11c-1.55,0-3.7-.89-4.78-1.98l-11.85-11.84c-1.09-1.09-2.87-1.09-3.96,0l-6.32,6.32c-1.09,1.09-1.09,2.87,0,3.97l16.6,16.59c1.09,1.09,2.87,1.09,3.96,0,0,0,1.57-1.57,1.57-1.57Z"/>
      </g>
    </g>
  </g>
</svg>